<svg width="21" height="21" viewBox="0 0 21 21" fill="none" xmlns="http://www.w3.org/2000/svg">
<path d="M10.5 1.75C11.8924 1.75 13.2277 2.30312 14.2123 3.28769C15.1969 4.27226 15.75 5.60761 15.75 7V7.875H19.25V9.625H18.2289L17.5665 17.5726C17.5483 17.7913 17.4486 17.9951 17.2872 18.1437C17.1258 18.2923 16.9144 18.3749 16.695 18.375H4.305C4.08559 18.3749 3.87423 18.2923 3.71282 18.1437C3.5514 17.9951 3.45171 17.7913 3.4335 17.5726L2.77025 9.625H1.75V7.875H5.25V7C5.25 5.60761 5.80312 4.27226 6.78769 3.28769C7.77226 2.30312 9.10761 1.75 10.5 1.75V1.75ZM11.375 11.375H9.625V14.875H11.375V11.375ZM7.875 11.375H6.125V14.875H7.875V11.375ZM14.875 11.375H13.125V14.875H14.875V11.375ZM10.5 3.5C9.60204 3.5 8.73843 3.84513 8.08779 4.46401C7.43715 5.08289 7.04927 5.92816 7.00438 6.825L7 7V7.875H14V7C14 6.10204 13.6549 5.23843 13.036 4.58779C12.4171 3.93715 11.5718 3.54927 10.675 3.50438L10.5 3.5Z" fill="#9B9B9B"/>
</svg>
