<svg width="141" height="141" viewBox="0 0 141 141" fill="none" xmlns="http://www.w3.org/2000/svg">
<path d="M4.6875 0.375C3.4443 0.375 2.25201 0.86886 1.37294 1.74794C0.49386 2.62701 0 3.8193 0 5.0625C0 6.3057 0.49386 7.49799 1.37294 8.37706C2.25201 9.25614 3.4443 9.75 4.6875 9.75H15.0938L18.8531 24.8156L32.8969 99.675C33.098 100.749 33.668 101.719 34.5085 102.418C35.349 103.116 36.4072 103.499 37.5 103.5H46.875C41.9022 103.5 37.1331 105.475 33.6167 108.992C30.1004 112.508 28.125 117.277 28.125 122.25C28.125 127.223 30.1004 131.992 33.6167 135.508C37.1331 139.025 41.9022 141 46.875 141C51.8478 141 56.6169 139.025 60.1333 135.508C63.6496 131.992 65.625 127.223 65.625 122.25C65.625 117.277 63.6496 112.508 60.1333 108.992C56.6169 105.475 51.8478 103.5 46.875 103.5H112.5C107.527 103.5 102.758 105.475 99.2418 108.992C95.7254 112.508 93.75 117.277 93.75 122.25C93.75 127.223 95.7254 131.992 99.2418 135.508C102.758 139.025 107.527 141 112.5 141C117.473 141 122.242 139.025 125.758 135.508C129.275 131.992 131.25 127.223 131.25 122.25C131.25 117.277 129.275 112.508 125.758 108.992C122.242 105.475 117.473 103.5 112.5 103.5H121.875C122.968 103.499 124.026 103.116 124.866 102.418C125.707 101.719 126.277 100.749 126.478 99.675L140.541 24.675C140.667 23.9985 140.643 23.3024 140.471 22.6361C140.298 21.9699 139.981 21.3498 139.541 20.82C139.102 20.2903 138.551 19.8637 137.928 19.5708C137.305 19.2778 136.626 19.1256 135.938 19.125H27.0938L23.2969 3.92812C23.0438 2.9136 22.4589 2.0128 21.635 1.36898C20.8111 0.725163 19.7956 0.375289 18.75 0.375H4.6875ZM56.25 122.25C56.25 124.736 55.2623 127.121 53.5041 128.879C51.746 130.637 49.3614 131.625 46.875 131.625C44.3886 131.625 42.004 130.637 40.2459 128.879C38.4877 127.121 37.5 124.736 37.5 122.25C37.5 119.764 38.4877 117.379 40.2459 115.621C42.004 113.863 44.3886 112.875 46.875 112.875C49.3614 112.875 51.746 113.863 53.5041 115.621C55.2623 117.379 56.25 119.764 56.25 122.25ZM121.875 122.25C121.875 124.736 120.887 127.121 119.129 128.879C117.371 130.637 114.986 131.625 112.5 131.625C110.014 131.625 107.629 130.637 105.871 128.879C104.113 127.121 103.125 124.736 103.125 122.25C103.125 119.764 104.113 117.379 105.871 115.621C107.629 113.863 110.014 112.875 112.5 112.875C114.986 112.875 117.371 113.863 119.129 115.621C120.887 117.379 121.875 119.764 121.875 122.25ZM68.9437 43.9312L79.6875 54.6844L90.4313 43.9312C91.3114 43.0511 92.5052 42.5566 93.75 42.5566C94.9948 42.5566 96.1886 43.0511 97.0687 43.9312C97.9489 44.8114 98.4434 46.0052 98.4434 47.25C98.4434 48.4948 97.9489 49.6886 97.0687 50.5688L86.3156 61.3125L97.0687 72.0563C97.9489 72.9364 98.4434 74.1302 98.4434 75.375C98.4434 76.6198 97.9489 77.8136 97.0687 78.6937C96.1886 79.5739 94.9948 80.0684 93.75 80.0684C92.5052 80.0684 91.3114 79.5739 90.4313 78.6937L79.6875 67.9406L68.9437 78.6937C68.5079 79.1296 67.9905 79.4753 67.4211 79.7112C66.8517 79.947 66.2413 80.0684 65.625 80.0684C65.0087 80.0684 64.3983 79.947 63.8289 79.7112C63.2595 79.4753 62.7421 79.1296 62.3062 78.6937C61.8704 78.2579 61.5247 77.7405 61.2888 77.1711C61.053 76.6017 60.9316 75.9913 60.9316 75.375C60.9316 74.7587 61.053 74.1483 61.2888 73.5789C61.5247 73.0095 61.8704 72.4921 62.3062 72.0563L73.0594 61.3125L62.3062 50.5688C61.8704 50.1329 61.5247 49.6155 61.2888 49.0461C61.053 48.4767 60.9316 47.8663 60.9316 47.25C60.9316 46.6337 61.053 46.0233 61.2888 45.4539C61.5247 44.8845 61.8704 44.3671 62.3062 43.9312C62.7421 43.4954 63.2595 43.1497 63.8289 42.9138C64.3983 42.678 65.0087 42.5566 65.625 42.5566C66.2413 42.5566 66.8517 42.678 67.4211 42.9138C67.9905 43.1497 68.5079 43.4954 68.9437 43.9312Z" fill="#E84D20"/>
</svg>
