<svg width="40" height="32" viewBox="0 0 40 32" fill="none" xmlns="http://www.w3.org/2000/svg">
<path d="M27.1433 26.9091V17.4545H14.1967C13.8178 17.4545 13.4544 17.3013 13.1865 17.0285C12.9186 16.7557 12.7681 16.3858 12.7681 16C12.7681 15.6142 12.9186 15.2443 13.1865 14.9715C13.4544 14.6987 13.8178 14.5455 14.1967 14.5455H27.1433V5.09091C27.1419 3.74116 26.6146 2.44711 25.6772 1.49269C24.7399 0.53827 23.4689 0.00144384 22.1432 0H5.00008C3.67441 0.00144384 2.40345 0.53827 1.46606 1.49269C0.528666 2.44711 0.00141808 3.74116 0 5.09091V26.9091C0.00141808 28.2588 0.528666 29.5529 1.46606 30.5073C2.40345 31.4617 3.67441 31.9986 5.00008 32H22.1432C23.4689 31.9986 24.7399 31.4617 25.6772 30.5073C26.6146 29.5529 27.1419 28.2588 27.1433 26.9091ZM35.1229 17.4545L30.4193 22.2445C30.1626 22.5195 30.0217 22.8857 30.0265 23.265C30.0312 23.6443 30.1814 24.0067 30.4448 24.2749C30.7082 24.5431 31.0641 24.696 31.4367 24.7008C31.8092 24.7057 32.1688 24.5622 32.4389 24.3009L39.5819 17.0282C39.8496 16.7554 40 16.3856 40 16C40 15.6144 39.8496 15.2446 39.5819 14.9718L32.4389 7.69909C32.1688 7.43783 31.8092 7.29432 31.4367 7.29918C31.0641 7.30404 30.7082 7.45687 30.4448 7.72509C30.1814 7.99331 30.0312 8.35569 30.0265 8.73498C30.0217 9.11427 30.1626 9.48046 30.4193 9.75546L35.1229 14.5455H27.1433V17.4545H35.1229Z" fill="white"/>
</svg>
