<svg width="21" height="21" viewBox="0 0 21 21" fill="none" xmlns="http://www.w3.org/2000/svg">
<path d="M10.5 0.604164C10.6934 0.604267 10.8829 0.658209 11.0474 0.759948C11.2119 0.861687 11.3448 1.0072 11.4312 1.18021L14.1187 6.55312L20.025 7.41146C20.2174 7.43939 20.3981 7.52062 20.5467 7.64594C20.6954 7.77126 20.806 7.93567 20.866 8.12058C20.9261 8.30549 20.9332 8.50351 20.8865 8.69225C20.8399 8.88098 20.7413 9.05289 20.6021 9.18854L16.3031 13.3802L17.2698 19.2906C17.3008 19.482 17.2779 19.6782 17.2035 19.8572C17.1292 20.0362 17.0063 20.1909 16.8488 20.3039C16.6913 20.4169 16.5054 20.4837 16.3121 20.4968C16.1187 20.5099 15.9254 20.4688 15.7541 20.3781L10.5 17.5906L5.24581 20.3781C5.0745 20.4688 4.88129 20.5099 4.6879 20.4968C4.49451 20.4837 4.30861 20.4169 4.15112 20.3039C3.99363 20.1909 3.8708 20.0362 3.79643 19.8572C3.72207 19.6782 3.69913 19.482 3.73018 19.2906L4.69685 13.3802L0.397893 9.18854C0.258619 9.05289 0.160085 8.88098 0.113437 8.69225C0.0667897 8.50351 0.0738908 8.30549 0.133937 8.12058C0.193984 7.93567 0.304579 7.77126 0.453211 7.64594C0.601844 7.52062 0.782581 7.43939 0.974976 7.41146L6.88123 6.55312L9.56873 1.18021C9.65517 1.0072 9.78808 0.861687 9.95255 0.759948C10.117 0.658209 10.3066 0.604267 10.5 0.604164ZM10.5 3.975L8.50206 7.97083C8.42708 8.12111 8.31688 8.25102 8.18084 8.34951C8.04481 8.448 7.88698 8.51214 7.72081 8.53646L3.36248 9.16979L6.53956 12.2667C6.65962 12.3836 6.74968 12.5279 6.80209 12.6871C6.8545 12.8463 6.86771 13.0158 6.8406 13.1812L6.12498 17.5531L10.0114 15.4906C10.1619 15.4107 10.3296 15.369 10.5 15.369C10.6703 15.369 10.8381 15.4107 10.9885 15.4906L14.875 17.5531L14.1594 13.1812C14.1324 13.016 14.1457 12.8467 14.1981 12.6876C14.2505 12.5286 14.3405 12.3846 14.4604 12.2677L17.6375 9.16979L13.2802 8.53646C13.114 8.51214 12.9562 8.448 12.8201 8.34951C12.6841 8.25102 12.5739 8.12111 12.4989 7.97083L10.5 3.975Z" fill="#9B9B9B"/>
</svg>
