<svg width="32" height="32" viewBox="0 0 32 32" fill="none" xmlns="http://www.w3.org/2000/svg">
<rect width="32" height="32" rx="7" fill="#FFBBBB"/>
<path d="M9.33333 22.5H10.1667V11.6667H9.33333C8.89131 11.6667 8.46738 11.8423 8.15482 12.1548C7.84226 12.4674 7.66667 12.8913 7.66667 13.3333V20.8333C7.66667 21.2754 7.84226 21.6993 8.15482 22.0118C8.46738 22.3244 8.89131 22.5 9.33333 22.5ZM22.6667 11.6667H16.8333L17.7683 8.85999C17.8518 8.6095 17.8745 8.34278 17.8346 8.08179C17.7948 7.82079 17.6935 7.573 17.5391 7.35882C17.3848 7.14464 17.1817 6.97019 16.9467 6.84985C16.7117 6.72951 16.4515 6.66672 16.1875 6.66666H16L11.8333 11.1983V22.5H21L24.26 15.3367L24.3333 15V13.3333C24.3333 12.8913 24.1577 12.4674 23.8452 12.1548C23.5326 11.8423 23.1087 11.6667 22.6667 11.6667V11.6667Z" fill="#FF4141"/>
</svg>
