<svg width="30" height="30" viewBox="0 0 30 30" fill="none" xmlns="http://www.w3.org/2000/svg">
<path d="M18.2344 19.9937L20.0019 18.2269L27.5138 25.7387L25.7463 27.5056L18.2344 19.9937Z" fill="#616161"/>
<path d="M12.5 22.5C18.0228 22.5 22.5 18.0228 22.5 12.5C22.5 6.97715 18.0228 2.5 12.5 2.5C6.97715 2.5 2.5 6.97715 2.5 12.5C2.5 18.0228 6.97715 22.5 12.5 22.5Z" fill="#616161"/>
<path d="M20.2812 22.0875L22.0481 20.32L27.4831 25.755L25.7156 27.5225L20.2812 22.0875Z" fill="#37474F"/>
<path d="M12.5 20.625C16.9873 20.625 20.625 16.9873 20.625 12.5C20.625 8.01269 16.9873 4.375 12.5 4.375C8.01269 4.375 4.375 8.01269 4.375 12.5C4.375 16.9873 8.01269 20.625 12.5 20.625Z" fill="#64B5F6"/>
<path d="M16.8125 8.875C15.75 7.625 14.1875 6.875 12.5 6.875C10.8125 6.875 9.24997 7.625 8.18747 8.875C7.93747 9.125 7.99997 9.5625 8.24997 9.75C8.49997 10 8.93747 9.9375 9.12497 9.6875C9.99997 8.6875 11.1875 8.125 12.5 8.125C13.8125 8.125 15 8.6875 15.875 9.6875C16 9.8125 16.1875 9.9375 16.375 9.9375C16.5 9.9375 16.6875 9.875 16.75 9.8125C17 9.5625 17 9.125 16.8125 8.875Z" fill="#BBDEFB"/>
</svg>
