<svg width="24" height="24" viewBox="0 0 24 24" fill="none" xmlns="http://www.w3.org/2000/svg">
<path d="M19 2H5C4.46957 2 3.96086 2.21071 3.58579 2.58579C3.21071 2.96086 3 3.46957 3 4V17C3 17.5304 3.21071 18.0391 3.58579 18.4142C3.96086 18.7893 4.46957 19 5 19H9L12 22L15 19H19C19.5304 19 20.0391 18.7893 20.4142 18.4142C20.7893 18.0391 21 17.5304 21 17V4C21 3.46957 20.7893 2.96086 20.4142 2.58579C20.0391 2.21071 19.5304 2 19 2ZM12 5C13.727 5 15 6.272 15 8C15 9.728 13.727 11 12 11C10.274 11 9 9.728 9 8C9 6.272 10.274 5 12 5ZM7.177 16C7.735 14.277 9.673 13 12 13C14.327 13 16.266 14.277 16.823 16H7.177Z" fill="#9B9B9B"/>
</svg>
